<!-- icon666.com - MILLIONS vector ICONS FREE --><svg id="Layer_1" enable-background="new 0 0 512 512" viewBox="0 0 512 512" xmlns="http://www.w3.org/2000/svg"><g><g><path d="m437.02 74.979c-48.352-48.351-112.64-74.979-181.02-74.979s-132.668 26.628-181.02 74.979c-48.351 48.353-74.98 112.64-74.98 181.021s26.629 132.668 74.98 181.02c48.353 48.351 112.64 74.98 181.02 74.98s132.667-26.629 181.02-74.98c48.351-48.352 74.98-112.639 74.98-181.02s-26.629-132.668-74.98-181.021z" fill="#00d8e0" style="fill: rgb(255, 255, 255);"></path><path d="m0 255.999c0 68.382 26.629 132.669 74.98 181.021 48.353 48.351 112.64 74.98 181.02 74.98s132.667-26.629 181.02-74.98c48.351-48.352 74.98-112.639 74.98-181.02v-.001z" fill="#00acb3" style="fill: rgb(255, 255, 255);"></path><path d="m400.6 208.866h-175.406l10.422-10.422c18.377-18.381 18.378-48.285.002-66.66-8.902-8.902-20.738-13.806-33.329-13.806-12.59 0-24.426 4.903-33.329 13.806l-90.859 90.859c-8.921 8.908-13.834 20.754-13.834 33.357 0 12.591 4.902 24.428 13.805 33.329l90.887 90.89c8.902 8.9 20.738 13.803 33.328 13.803s24.426-4.902 33.33-13.805c18.375-18.379 18.375-48.281-.001-66.656l-10.428-10.428h175.412c25.989 0 47.134-21.144 47.134-47.133s-21.145-47.134-47.134-47.134z" fill="#e7f0ef" style="fill: rgb(0, 0, 0);"></path></g><path d="m447.733 255.999c0 25.99-21.145 47.134-47.134 47.134h-175.408l10.424 10.425c18.379 18.378 18.38 48.28.004 66.657-8.902 8.902-20.739 13.806-33.33 13.806-12.59 0-24.427-4.902-33.329-13.806l-90.855-90.856c-8.924-8.904-13.838-20.751-13.838-33.358v-.001h383.466z" fill="#c5e1e6" style="fill: rgb(0, 0, 0);"></path></g></svg>